<svg width="49" height="48" viewBox="0 0 49 48" fill="none" xmlns="http://www.w3.org/2000/svg">
<path d="M24.8164 0C38.0711 0.000219551 48.8164 10.7453 48.8164 24C48.8164 37.2547 38.0711 47.9998 24.8164 48C11.5616 48 0.816406 37.2548 0.816406 24C0.816406 10.7452 11.5616 0 24.8164 0ZM42.7754 25.1338C42.9249 24.7059 42.6914 23.9644 41.5166 25.1338C40.3418 26.3031 37.968 27.7919 35.2324 28.1279C31.7764 28.0319 32.5382 28.0154 23.4756 26.1777C14.413 24.3401 9.75283 26.7243 8.49414 28.0469C7.65516 29.049 8.72064 28.9622 9.41992 28.8926C9.41992 28.8926 12.5282 28.6565 16.9922 28.8965C21.6001 29.3582 25.7762 30.7681 27.252 31.3984C28.3009 31.8162 29.9996 33.2161 27.8809 34.9482C25.8669 36.7857 21.792 35.4238 21.168 34.7998C20.736 34.4638 20.2711 33.717 20.1191 34.3223C19.9685 35.1855 21.379 39.3336 26.2031 39.96C30.063 40.4609 32.5668 36.1317 33.3359 33.9043C33.3359 33.9043 33.5453 32.9438 36.9014 31.6074C40.2577 30.271 42.2159 26.7349 42.7754 25.1338ZM33.7549 8.01074C30.063 7.84381 28.9826 9.74037 28.8428 10.7148C28.8429 11.1324 29.49 11.0729 29.7695 10.9336C31.1514 10.2971 34.8037 10.3912 34.8037 14.9014C34.8037 19.4119 28.6501 19.1472 25.5732 18.4512C25.5272 18.4421 20.0622 17.3646 16.5527 17.1982C13.0559 17.2799 8.93052 19.9133 7.32227 21.375C6.62313 22.1406 6.10635 23.2541 9.62988 21.584C13.1542 19.9134 21.168 21.3051 24.7344 22.21C27.042 22.6972 32.497 23.2965 35.8535 21.793C39.2098 20.2893 39.7467 14.5916 39.4082 13.0557C39.1963 12.0952 37.2473 8.20836 33.7549 8.01074Z" fill="white"/>
</svg>
