<svg width="49" height="48" viewBox="0 0 49 48" fill="none" xmlns="http://www.w3.org/2000/svg">
<path d="M24.1836 0C37.4384 0 48.1836 10.7452 48.1836 24C48.1836 37.2548 37.4384 48 24.1836 48C10.9289 47.9998 0.183594 37.2547 0.183594 24C0.183594 10.7453 10.9289 0.000219565 24.1836 0ZM42.1436 25.1338C42.2931 24.7059 42.0595 23.9644 40.8848 25.1338C39.7099 26.3032 37.3355 27.7919 34.5996 28.1279C31.1441 28.0319 31.906 28.0153 22.8438 26.1777C13.7813 24.3401 9.12109 26.7243 7.8623 28.0469C7.02325 29.0491 8.08881 28.9622 8.78809 28.8926C8.78809 28.8926 11.8964 28.6565 16.3604 28.8965C20.9682 29.3582 25.1444 30.7682 26.6201 31.3984C27.6691 31.8162 29.3677 33.2162 27.249 34.9482C25.2351 36.7858 21.1601 35.4238 20.5361 34.7998C20.1041 34.4638 19.6393 33.717 19.4873 34.3223C19.3367 35.1854 20.7471 39.3336 25.5713 39.96C29.4309 40.4607 31.9339 36.1317 32.7031 33.9043C32.7031 33.9043 32.9133 32.9438 36.2695 31.6074C39.6259 30.271 41.5841 26.7348 42.1436 25.1338ZM33.123 8.01074C29.431 7.84374 28.3508 9.74036 28.2109 10.7148C28.211 11.1322 28.857 11.0728 29.1367 10.9336C30.5183 10.2969 34.1719 10.3908 34.1719 14.9014C34.1719 19.4119 28.0182 19.1472 24.9414 18.4512C24.9101 18.445 19.4351 17.3648 15.9209 17.1982C12.424 17.2798 8.2987 19.9132 6.69043 21.375C5.99125 22.1407 5.47425 23.2543 8.99805 21.584C12.5224 19.9134 20.5362 21.3051 24.1025 22.21C26.41 22.6972 31.8641 23.2962 35.2207 21.793C38.5772 20.2895 39.1149 14.5917 38.7764 13.0557C38.5645 12.0953 36.6155 8.20836 33.123 8.01074Z" fill="#3977F2"/>
</svg>
